<?xml version="1.0" encoding="utf-8"?>
<!-- Generator: Adobe Illustrator 27.2.0, SVG Export Plug-In . SVG Version: 6.00 Build 0)  -->
<svg version="1.1" id="Layer_1" xmlns="http://www.w3.org/2000/svg" xmlns:xlink="http://www.w3.org/1999/xlink" x="0px" y="0px"
	 viewBox="0 0 972 972" style="enable-background:new 0 0 972 972;" xml:space="preserve">
<style type="text/css">
	.st0{fill:#231F20;}
</style>
<g>
	<path class="st0" d="M929.5,661c0,11.3,0.7,22.6-0.3,33.9c-0.5,5.5-3.5,10.9-6,16.1c-20.4,43.5-40.9,87-61.5,130.4
		c-9,19-18,37.9-27,56.8c-0.9,1.9-2.4,3.6-4.2,4.7c-8.3,4.7-16.7,9.3-25.2,13.6c-2,1-4.3,1.2-6.5,0.6c-12.8-3.7-25.3-8.3-38.2-11.5
		c-5.5-1.4-11.7-0.7-17.6-0.3c-7,0.4-14,1.5-21,2.2c-19.5,1.9-39,3.2-58.4,5.7c-9.9,1.2-17.5-3.7-25.8-7.2
		c-14.6-6.1-28.9-12.8-43.4-19.1c-1.6-0.7-3.3-0.9-5-0.6c-30.8,6.2-61.6,12.5-92.4,18.9c-2.9,0.7-5.4,2.2-7.5,4.3
		c-15.6,17.2-31.3,34.6-46.5,52.2c-5.3,6.1-12.3,5.2-18.8,6.8c-4.9,1.2-9.9,1.4-14.8,2.5c-8.1,1.9-15.5-0.7-23-2.8
		c-27.5-7.5-55-15-82.4-22.6c-8.6-2.4-17.2-4.5-25.8-7.1c-2.8-1-5.4-2.4-7.8-4.2C201,884,131.5,833.8,62.1,783.5
		c-1.9-1.5-3.3-3.6-3.8-5.9c-3.7-22.1-7.2-44.2-10.7-66.3c-1.6-9.7-3.1-19.5-4.9-29.2c-0.8-4.2-0.7-8,2.2-11.5
		c1.8-2.2,2.9-4.9,4.8-6.9c7.7-8.4,9.2-18.7,10.1-29.5c2.9-31.4,6.1-62.7,9.3-94c0.3-2.1,1.1-4.2,2.3-5.9
		c25.1-35.6,50.7-70.9,75.3-106.8c18.4-26.9,35.8-54.5,53-82.1c3.7-6,5.3-13.3,7.6-20.1c11.6-34.1,23-68.2,34.6-102.3
		c0.9-2.1,2.4-4,4.3-5.3c10-7.2,20.3-14.1,30.3-21.4c2.4-1.8,4.4-4.3,5.5-7.1c6-14.6,11.5-29.4,17.4-44.1c0.8-1.7,2.3-3,4.1-3.7
		c8.9-2.4,18-4.2,26.9-6.7c2.6-0.7,5-2.2,6.8-4.3c10.3-13,20.3-26.3,30.6-39.3c2-2.6,4.5-4.7,7.3-6.3C425.1,58.3,475.1,32.1,525,6
		c2.8-1.3,5.6-2.8,8.3-4.4c3.3-2.2,5.5-1.4,8,1.4c21.6,24,42.8,48.4,65.1,71.7c11.8,12.4,17.7,27.6,24.5,42.4
		c29.2,63.4,60.3,126,91.7,188.4c23.5,46.6,46.4,93.5,69.5,140.2c4,8,7.3,16.4,12.1,23.9c3.3,5.1,8.5,9.1,13.1,13.3
		c16.4,15,33.2,29.6,49.2,45.1c5.5,5.3,9.1,12.7,13.3,19.2c15.4,23.6,30.6,47.3,46,71c2.5,3.6,3.8,7.9,3.7,12.3
		C929.3,640.6,929.5,650.8,929.5,661z M89.7,647.1c-1.7,4.2,0.9,8.4,3.7,12.8c7.8,12.5,15.3,25.2,23.3,37.5c2.2,3.3,5.2,6,8.7,8
		c10.4,5.8,21.1,11,31.5,16.8c2.4,1.4,4.5,3.3,6.1,5.6c10.1,15.5,20,31.1,30.2,46.5c1.9,2.8,4.5,5.1,7.5,6.6
		c43.5,20,87.1,39.9,130.8,59.5c3.8,1.7,7.9,3.4,11.9,3.6c10.3,0.5,20.7,0.3,31,0.1c2.5-0.1,4.9-0.8,7-2.1
		c23.1-15,46.1-30.3,69.2-45.3c2.7-1.8,5.9-2.8,9.1-2.9c20.7-0.5,41.4-0.5,62.1-0.7c34.2-0.4,68.4-1,102.6-1.3c2.5,0.1,4.9,0.7,7,2
		c16.2,9.4,32.2,19.2,48.5,28.7c2.1,1.1,4.6,1.3,6.9,0.7C716,814.6,745,805.9,774,797c4.4-1.4,9.2-1.9,12.2-6.8
		c16.4-26.3,33-52.5,49.9-78.5c3.8-6,5.1-12.2,5.6-19c1.3-19.4,3-38.7,4.6-58.1c1.9-22.8,3.9-45.6,5.8-68.4c0.2-1.2,0-2.5-0.6-3.6
		c-3.6-5.3-6.6-11.3-11.2-15.6c-18.9-17.8-38.3-35.2-57.5-52.8c-2.2-2-4-4.4-5.4-7c-17.9-36-35.7-72.1-53.6-108.2
		c-22.1-44.5-44.6-88.7-66.3-133.4c-21.2-43.6-41.7-87.6-62.5-131.5c-1.9-4.1-3.6-8.6-6.5-11.9c-18.2-20.5-36.7-40.8-55-61.2
		c-2-2.3-3.6-2.5-6.4-1c-42.4,22.3-84.9,44.5-127.4,66.6c-5.4,2.7-10.2,6.7-13.8,11.5c-10,13.5-20.4,26.7-30.7,39.9
		c-1.2,1.5-2.9,3.2-4.6,3.6c-7.7,2.1-15.5,3.6-23.2,5.8c-2.1,0.6-3.8,2.1-4.8,4c-5,12.3-9.6,24.8-14.6,37.1
		c-1.2,2.8-3.1,5.3-5.5,7.2c-9.8,7.2-20,14-29.9,21.2c-2.1,1.6-3.7,3.7-4.6,6.1c-10.7,31.1-21.1,62.3-31.7,93.4
		c-2.8,8.1-4.9,16.8-9.3,24c-16.1,26.1-32.6,52.1-49.9,77.4c-21.8,32-44.2,63.6-66.9,94.9c-7.3,10.1-13.2,20-12.3,32.9
		c0,0.6-0.1,1.3-0.2,1.9C95,593.7,92.4,619.8,89.7,647.1L89.7,647.1z M77.7,694l-0.9,0.4c-0.1,0.8-0.1,1.5,0,2.3
		c3.4,20.9,6.9,41.7,10.1,62.6c0.5,3.4,2.2,5.2,4.7,7c57.7,41.6,115.4,83.2,173.1,124.9c13.4,9.7,26.4,19.3,43.4,23.1
		c25.9,5.8,51.4,13.6,77,20.9c11.3,3.2,22.5,5.8,34,1.7c2.7-0.9,5.2-2.4,7.2-4.5c14.1-15.5,28.3-31.1,41.9-47.1
		c5-5.8,10.3-9.7,18-10.4c3.4-0.3,6.7-1.3,10.1-2c30.7-6.3,61.3-12.7,92-18.8c3.7-0.7,8.1-1.2,11.3,0.2
		c19.5,8.2,38.7,16.9,58.1,25.3c2,0.8,4.2,1.1,6.3,0.9c18.7-1.7,37.4-3.5,56.1-5.3c7-0.7,14-1.6,21-2c7.6-0.5,15.4-1.7,22.8-0.3
		c9.8,1.7,19.2,5.6,28.8,8.5c8.2,2.5,14.7-0.4,18.5-8.3c8.7-18.4,17.3-36.8,26-55.2c18-38.1,35.8-76.2,54.2-114.1
		c4.5-9.2,6.8-18.1,6.3-28.3c-0.6-12.7-0.2-25.4-0.2-38.1c0-1.4,0.3-3.1-0.3-4.2c-5-8.2-10.2-16.3-15.3-24.4l-1.2,0.4l-5.6,68.1
		c-1,11.9-1.9,23.7-3,35.6c-0.2,1.4-0.7,2.7-1.5,3.9c-21.4,33.8-42.8,67.5-64.3,101.1c-1.6,2.1-3.7,3.7-6.2,4.4
		c-12.7,4.1-25.4,7.8-38.1,11.6c-26.4,7.9-52.7,15.9-79.1,23.6c-2.8,0.6-5.7,0.2-8.2-1.1c-17-10-33.8-20.4-50.8-30.4
		c-2.7-1.5-5.7-2.4-8.7-2.4c-48.6,0.3-97.2,0.7-145.9,1.3c-3.2,0.2-6.3,1.3-9,3.2c-22.7,14.8-45.3,29.8-68,44.5
		c-2.4,1.6-5.2,2.6-8.2,2.8c-15.8,0.2-31.7,0.1-47.5,0c-1.9,0-3.7-0.3-5.5-1c-8.9-3.9-17.7-8-26.5-12c-41.7-19-83.5-38.1-125.2-57.2
		c-3-1.5-5.6-3.7-7.5-6.6c-10.4-15.8-20.5-31.9-30.9-47.8c-1.4-2.1-3.2-3.7-5.4-4.9c-10.9-5.9-22-11.4-32.7-17.5
		c-3.3-1.9-6.1-4.6-8.3-7.7C88.5,712.2,83.2,703,77.7,694L77.7,694z"/>
	<path class="st0" d="M531.4,154.7l-9.5,12.5c-17.3,22.7-34.8,45.1-51.7,68.2c-4.5,6.2-7.5,13.7-10,21.1c-4.2,12.4,4.7,24.4,18,24.4
		c9.2,0,18.5-0.9,27.7-1.8c9.8-0.9,19.6-2.7,29.4-3.3c12-0.7,23.8,1.1,34.7,6.7c10.2,5.3,13.9,13.1,9.8,23.7
		c-2.9,7.9-6.9,15.3-11.8,22.2c-14.2,19.3-32.2,35-50,50.9c-44.3,39.3-89.7,77.4-136.8,113.4c-13.8,10.6-27.8,20.9-41.8,31.3
		c-1.7,1.3-3.5,2.4-5.3,3.6l-1.1-1.1c1.3-1,2.6-1.9,3.8-3c39.6-35.9,78.6-72.4,115.4-111.3c19-20.1,37.9-40.5,52.8-64.1
		c2.9-4.8,5.2-10,6.9-15.3c2.7-8.5-1.8-17-10.2-20.1c-6.8-2.5-14.1-3.2-21.3-2.1c-15.3,2.3-30.6,4.9-46,6.2
		c-13.6,1.2-24.3-5.7-28.2-17.3c-3.1-9.3-0.8-18.4,3.8-26.7c12.7-23.5,29.1-44.7,48.7-62.9c21.7-20.2,45.4-38.1,69.8-54.8
		c0.7-0.4,1.3-0.7,2-1L531.4,154.7z"/>
	<path class="st0" d="M698,502.9H388.6c-0.1-0.4-0.2-0.8-0.4-1.2c5.3-3.8,9.1-9.4,17.2-9.4c88.3,0.2,176.6,0.2,264.9,0h7
		c-1.8-2.5-2.9-4.1-4.1-5.7c-34.4-43.6-68.7-87.1-103.1-130.7c-5.7-7.2-5.7-7.2,2.2-14.3l126.5,160L698,502.9z"/>
	<path class="st0" d="M266.1,492.8h85.3c-2.2,5.7-8.8,10.5-14,10.5c-28.7,0-57.4,0-86.1,0c-1.9,0-3.8-0.3-7.1-0.6l154.2-192.2
		c2.1,2.5,4.4,4.4,5.6,6.9c0.5,1-0.6,3.5-1.6,4.8c-16.4,20.6-32.9,41.1-49.4,61.6c-28.1,35-56.1,69.9-84.1,104.9
		C268.2,489.6,267.6,490.7,266.1,492.8z"/>
	<path class="st0" d="M473,677.9c62.7,0,125.5,0,188.2,0.1c2.6,0,7-1.8,7,3s-4.4,3-6.9,3c-125.8,0-251.5-0.1-377.3-0.2
		c-1.2,0.2-2.5,0.1-3.7-0.2c-0.9-0.4-2.2-1.6-2.1-2.3c0.2-1.2,1-2.3,2.1-2.9c1.6-0.5,3.4-0.2,5.1-0.2H473V677.9z"/>
	<path class="st0" d="M332.6,613.8c-1.5-1.4-3.3-2.7-4.3-4.4c-5.5-8.8-14.7-12.5-24.6-10c-5,1.3-7.7,4.5-8.7,9.4
		c-1.1,5.2,2.6,7.4,6.1,9.4c5.2,2.9,10.4,6.1,16,7.8c8.3,2.5,12.3,8.6,15.7,15.5c4.6,9.4,3.4,16.9-3.8,24.4c-1.4,1.4-3,3.1-4.9,3.6
		c-10.4,3.1-20.8,7.2-31.9,2.6c-2.5-0.9-5.1-1.5-7.7-1.8c-4-0.6-6.2-2.7-6.3-6.8c-0.1-3.6-0.4-7.2-0.3-10.8c0-1.2,0.9-2.4,1.4-3.6
		c1.5,0.6,3.7,0.8,4.3,1.9c3.6,6.6,9.9,9.9,15.9,13.3c6.9,4,17.2,1.7,20.5-5.2c2.4-5.2,1.2-10.2-3.7-13.2s-9.2-6.4-13.9-9.4
		c-1.2-0.6-2.5-1-3.9-1.3c-3.9-1.4-8.3-2.1-11.7-4.3c-5-3.3-5.3-9.5-5.3-14.7c0-13.5,8-22.4,21-23.6c8.3-0.8,16.8-0.4,25.1,0
		c3.6,0.2,5.7,2.8,5.3,6.9c-0.1,1.7,1,3.6,1.1,5.4c0.2,2.8,0.1,5.5,0.1,8.3L332.6,613.8z"/>
	<path class="st0" d="M561.1,655.8c-5.3,1.5-11,2.7-16.9,1.4c-2.8-0.6-2.4-3.1-0.7-4.7c2.6-2.3,2.6-4.9,2.7-8
		c0.3-10.2,1-20.3,1.6-30.5c0.1-1.2-0.2-2.4-0.9-3.4c-6.7,15.4-13.3,30.7-19.9,46.1l-1.5-0.2l-22.8-45.2c0,10.5,0,19.7,0,28.8
		c0,0.9,0.8,2,0.5,2.7c-2.1,4.6,0.5,7.6,3.2,10.8c0.6,0.7-0.1,3.6-0.2,3.6c-5.3,0.2-10.6,0.2-16.4,0.2c2.4-3.7,5-6.3,5.7-9.3
		c1.1-4.9,1-10.1,1.2-15.2c0.3-7.5,1-15.1,0.3-22.6c-0.3-3.6-3.2-7-4.9-10.5c-0.8-1.5-1.6-2.9-2.5-4.4c1.5-0.3,3.1-0.6,4.7-0.7
		c4.1,0,8.1,0.4,12.2,0.4c3.2,0,4.3,0.9,4.2,4.4c-0.1,2.5,1.3,5.2,2.4,7.6c3.5,7.6,7.2,15.1,10.8,22.7c0.8,1.7,1.1,3.7,2.1,5.2
		c0.9,1.2,2.7,2.6,3.8,2.4s2.4-2,2.9-3.4c4.4-11.7,8.6-23.4,12.9-35.1c1-2.6,2.8-4.1,5.8-3.7s5.9,0.4,8.8,0.9
		c3.6,0.6,3.5,2.5,1.8,5.4c-1.6,2.5-2.6,5.4-2.9,8.4c-0.6,12.4-1,24.8-1,37.3C558.2,649.6,559.9,652.2,561.1,655.8z"/>
	<path class="st0" d="M480.9,656c-5.2,1.6-10.8,2-16.2,1.1c-0.5-0.1-1.2-3.9-0.5-4.4c3.2-2.5,2.2-5.7,2.4-9
		c0.4-9.8,1.3-19.6,2.1-29.4c0.1-1.2,0.2-2.3,0.2-3.5l-1.2-0.4c-6.7,15.4-13.4,30.8-20.2,46.2l-1.5-0.5l-22.4-44.5l-0.8,0.5
		c0,7.7,0,15.5,0,23.2c0,3.6,0.2,7.2,0.5,10.7c0.3,1.8,1,3.5,1.9,5c1.1,1.8,2.3,3.5,3.7,5.2c-6.4,2.5-12.2,0.8-19.3,0.9
		c1.2-1.1,2.3-2.3,3.4-3.6c1.2-1.9,3.1-4,3.2-6c0.4-10.5,0.3-21.1,0.4-31.7c0.1-0.9,0.3-1.8,0.5-2.7c0.8-5.5,0.2-10.5-5-14
		c-1-0.7-1.3-2.5-1.9-3.8c1.2-0.5,2.5-0.8,3.8-0.9c4.5,0.1,9,0.5,13.6,0.6c3,0.1,4,0.9,3.7,4.3c-0.2,2.3,0.9,4.9,1.9,7.1
		c3.4,7.3,7.1,14.4,10.6,21.7c1,2.1,1.3,4.6,2.5,6.5c1,1.4,2.5,2.3,4.2,2.7c0.6,0.1,2.3-1.8,2.6-3.1c3-12.5,8.6-24,13.5-35.8
		c0.8-1.6,2.3-2.7,4-3.1c3.4-0.1,6.9,0.1,10.2,0.7c3.3,0.5,4.1,2.7,1.8,4.9c-2.8,2.7-3.3,5.7-3.1,9.3c0.1,2.9-0.6,5.9-1,8.8
		c-0.2,0.9-0.4,1.8-0.5,2.8c0.1,7.7,0.2,15.4,0.7,23C478.9,648.2,480,651.5,480.9,656z"/>
	<path class="st0" d="M638.3,620.3c0.6,9.2,1.3,18.4,1.9,27.6c0.1,1.2,0.5,2.6,0.2,3.7c-1.9,7.2,0.8,12.1,6.9,15.8
		c0.9,0.8,1.4,1.9,1.2,3.1c-0.3,0.8-2,1.4-3,1.4c-8.1,0.3-16.2,0.4-24.4,0.5c-0.9,0-2.5-0.6-2.7-1.3c-0.3-1-0.2-3,0.5-3.3
		c7.9-4.5,5.1-12.1,5.4-18.6c0.4-8.1,0.2-16.3,0-24.4c0-5.8-0.3-11.6-1-17.3c-0.5-3.5-1.7-8.1-5.8-8.1c-3.3,0-6.7,2.7-9.7,4.7
		c-1.8,1.1-2.9,3.3-4.5,4.7c-0.8,0.6-1.9,0.9-2.9,0.6c-0.7-0.3-1.2-1.7-1.2-2.7c-0.4-3.7-0.6-7.4-0.8-11.2c-0.2-3.2,2.1-3.6,4.4-3.5
		c7.5,0.5,14.9,1.2,22.4,1.6c2.9,0.2,5.8-0.5,8.8-0.6c4.2-0.3,8.4-0.6,12.6-0.7c3.8-0.1,7.6,0.3,11.4,0c5.5-0.4,6.6,0.8,5.3,6
		c-0.7,2.7-1,5.5-1.8,8.2c-0.4,1.3-1.5,3.2-2.4,3.3s-2.5-1.3-3.5-2.3c-0.7-0.7-0.8-2-1.3-3c-2.2-4.6-9.1-7.5-13.7-5.5
		c-1,0.5-1.7,2.7-1.8,4.2c-0.2,2.8,0,5.6,0.1,8.5s0,5.6,0,8.4L638.3,620.3z"/>
	<path class="st0" d="M473,667.1h130.3c1.6,0,3.2-0.3,4.7,0.2c1,0.3,2.4,1.7,2.4,2.5c-0.2,1.2-1,2.3-2.2,2.8
		c-1.2,0.5-2.8,0.2-4.2,0.2l-242.3-0.2c-6.7,0-13.5,0.2-20.2,0c-2.3-0.1-6.2,1.5-6.3-2.7c-0.1-4.5,3.8-2.7,6.1-2.8
		C385.2,667.1,429.1,667.1,473,667.1L473,667.1z"/>
	<path class="st0" d="M352.3,594.5c3.4,0.2,7.8,0.5,12.2,1c1,0.1,1.9,1.3,2.8,2c-0.6,0.8-1.1,1.9-1.9,2.3c-6.6,3.1-7.6,4.9-7.4,12.3
		c0.2,7.2-0.1,14.4,0.4,21.6c0.2,4.2,1.2,8.3,2.9,12.1c2,4.5,6.3,6.7,11.3,7.3c8.5,1.1,15.3-1.5,16.9-7.6c1.5-5.4,2.2-10.9,2.3-16.5
		c0.1-7.5-0.9-14.9-1.2-22.4c-0.1-3.5-1.1-6-4.6-7.4c-1.1-0.4-1.7-1.9-2.6-2.8c1.2-0.5,2.4-1.5,3.6-1.5c5.1-0.2,10.3-0.2,15.5,0
		c1,0,2.7,0.8,2.9,1.6c0.1,1.2-0.5,2.3-1.4,3c-5.3,2.4-5.7,7.3-5.9,11.9c-0.4,8.4,0.1,16.9-0.3,25.3c-0.2,4.3,0,9.7-2.4,12.6
		c-3.5,4.2-8.9,8.3-14,9.2c-7.3,1.3-15.3,0.5-22.7-0.8c-6.1-1.1-10.1-5.7-10.4-12.3c-0.5-11.4-0.7-22.8-0.9-34.2
		c-0.1-4.6,0.4-9.2-4.8-11.8c-0.9-0.4-1.8-2.4-1.5-3.1c0.7-1.1,1.9-1.8,3.2-2C347,594.3,349.6,594.3,352.3,594.5z"/>
	<path class="st0" d="M419.2,564.1c0-6.8,0.2-12.1,0-17.4c-0.1-3.7,1.6-4.5,4.8-4.5s5,0.6,4.9,4.4c-0.2,9.9,0,19.7-0.1,29.6
		c0,1.9-0.9,4.8-2.1,5.3c-2.8,1.3-6.2,0.4-7.9-2.2c-3.8-5.2-7.7-10.2-11.6-15.3c-1-1.5-2.4-2.7-4-3.5c0,5.5-0.2,11,0.1,16.5
		c0.2,4-1.6,5.1-5.3,5.1c-3.5,0-4.7-1.4-4.6-4.8c0.1-9.7-0.1-19.4,0.1-29.1c0-1.9,0.9-5.1,2-5.4c2.8-0.8,6.1-1.4,8.5,1.8
		c3.9,5.4,8.1,10.7,12.2,16C416.7,561.5,417.5,562.2,419.2,564.1z"/>
	<path class="st0" d="M436.7,561.7c0-5.2-0.2-10.3,0.1-15.5c0.1-1.3,1.6-3.6,2.4-3.6c7,0.1,14.2-0.2,20.9,1.3
		c8.9,2.1,13.8,10.3,13.2,19.3s-6.3,16.1-15.4,17.7c-5.8,1-11.8,0.8-17.7,1.1c-3,0.2-3.6-1.8-3.6-4.3
		C436.7,572.3,436.6,567,436.7,561.7z M446.6,551.7c0,6.4-0.1,12.6,0.1,18.9c0,0.8,1.1,2.4,1.5,2.4c4-0.8,8.5-0.9,11.8-3
		c3.6-2.2,4.3-6.7,3-11C460.9,552.5,456.1,550.2,446.6,551.7L446.6,551.7z"/>
	<path class="st0" d="M450.8,736.8c-12.4,0-21.1-8.3-21.1-20.3c0-11.7,9-20.5,21-20.6s21,8.6,21,20.5S463.1,736.7,450.8,736.8z
		 M440,716.4c0,6.8,4.5,11.5,10.9,11.5s10.9-4.7,10.9-11.5s-4.5-11.4-10.9-11.4C444.2,705,440,709.5,440,716.4z"/>
	<path class="st0" d="M417.3,722.5c1.5,2.3,2.9,4.4,4.2,6.5s2.6,4.1,3.9,6.3c-7.4,2.6-9.9,1.7-14-4.4c-2.3-3.4-3.6-8.6-10.5-6
		c0,2.4-0.1,5.2,0,7.9c0.2,3-1.2,3.9-4,3.7c-2.3-0.2-5.6,0.9-5.6-3.1c-0.1-11.3-0.1-22.5,0.1-33.8c0-1,2.4-2.7,3.7-2.7
		c5.3-0.3,10.6-0.2,16-0.1c6.5,0.1,11.1,3.2,12.9,8.3c2.1,6,0.5,11.6-4.7,15.9L417.3,722.5z M401.1,715.9c4-0.4,7.5-0.4,10.6-1.4
		c1.4-0.4,3.2-3.1,2.9-4.5c-0.5-2-2-3.6-3.9-4.4c-3-0.7-6.4-0.2-9.6-0.2L401.1,715.9z"/>
	<path class="st0" d="M555.9,556.7c0-3.8,0.1-7.4,0-11c-0.1-3.2,1.8-3.6,4.3-3.4s5.4-0.8,5.5,3.3c0,11,0,22,0,32.9
		c0,3.8-2.7,3.5-5.3,3.6c-2.7,0.1-4.6-0.6-4.5-3.9c0.1-2.7-0.1-5.3,0-8c0.2-2.9-1.2-3.7-3.9-3.8c-10.3-0.5-10.3-0.6-10.4,10.1
		c-0.1,5.3-0.8,5.9-6,5.6c-2.8-0.1-3.9-1.4-3.9-4.1c0-10.7,0.1-21.3,0-32c0-3.8,2.5-3.7,5.1-3.7s5.2,0.2,4.8,3.9c0,0.2,0,0.3,0,0.5
		C542,558.6,542.6,559,555.9,556.7z"/>
	<path class="st0" d="M573.5,562c0-5.2,0.1-10.3,0-15.5c-0.1-2.9,0.7-4.4,3.9-4.3c7.5,0.1,15,0.1,22.5,0c3.2-0.1,4,1.5,3.9,4.4
		s-0.4,4.6-3.8,4.5c-4.4-0.1-8.8,0-13.1,0c-2.5-0.1-3.7,0.7-3.7,3.5s1.7,2.9,3.7,2.9c3.5,0,6.9,0.1,10.3,0c3.7-0.2,3.8,2.1,3.9,4.9
		s-0.9,4-3.8,3.8c-3.6-0.2-7.2,0.1-10.8-0.1c-2.9-0.1-3.4,1.3-3.4,3.8s0.7,3.5,3.2,3.5c4.4-0.1,8.8,0.1,13.2-0.1
		c3.2-0.1,4.5,0.9,4.4,4.3c-0.1,3-0.7,4.7-4.2,4.6c-7.4-0.2-14.7-0.2-22.1,0c-3.3,0-4.4-1.4-4.3-4.5
		C573.6,572.4,573.5,567.2,573.5,562z"/>
	<path class="st0" d="M530.3,710.9c2.8-3.1,6-5.9,8.4-9.3c3.9-5.6,9.1-5.6,16.1-4.4c-3.4,3.7-6.3,6.8-9.2,9.9
		c-6.1,6.5-6.1,6.5-1,13.4c2.7,3.7,5.4,7.3,8.1,11c0.9,1.2,1.5,2.5,2.3,3.9c-7.9,2.3-10.2,1.5-14.4-4.3c-2.5-3.4-5-6.8-7.5-10.3
		c-5.2,2-4.2,6.3-4.1,10c0,3.4-0.3,5.7-4.8,5.6c-3.9-0.1-5.2-1.2-5.2-5.2c0.2-10,0.2-20,0-30.1c-0.1-3.8,1.3-4.8,4.9-4.8
		s5.2,1,5,4.8c-0.2,3,0,6.1,0,9.2L530.3,710.9z"/>
	<path class="st0" d="M591.9,657.8c-5.3,0-11,0.1-16.8-0.2c-0.5,0-1.5-3.6-1.1-4c4.7-3.8,3.9-9.2,4-13.9c0.2-11.2-0.2-22.4-0.7-33.6
		c-0.1-2-1.9-4-3-5.9c-0.6-1.1-2.3-2.4-2-3c0.6-1.2,1.7-2.1,3.1-2.4c5.3-0.2,10.6-0.2,15.8,0.1c2.9,0.2,3.5,2.6,1.4,4.2
		c-4.2,3.2-3.8,7.5-3.7,11.8c0,11.2-0.2,22.5,0.1,33.7C589.1,648.6,590.7,652.5,591.9,657.8z"/>
	<path class="st0" d="M497.4,736.8c-8.3,0.3-14.6-3.3-18.4-10.7c-3.9-7.6-3.3-15.3,1.8-22.2s12.5-9.1,20.8-7.6c2.3,0.4,4.6,1,6.7,2
		c5.2,2.7,5.3,4.5,1.2,8.7c-2.2,2.3-3.7,1-5.7-0.2c-5.6-3.5-12-2.2-15.2,2.9c-3.4,5.5-2.1,12.8,3.1,16.3c3.7,2.8,8.7,2.6,12.2-0.3
		c3.3-2.5,5.2-1.3,7.5,1.2c2.1,2.3,1.7,4.2-0.6,5.3c-4.2,2.1-6.5,3.4-11.7,4.4C498.6,736.8,498,736.8,497.4,736.8z"/>
	<path class="st0" d="M349.3,551.1c-1.2,6.8-1,7.1,5.1,7.1c2.4,0,4.7,0.1,7.1,0c3-0.1,5.4,0,5.4,4.3s-2.3,4.8-5.6,4.6
		c-4-0.1-8.1,0-12.6,0c0,4-0.1,7.3,0,10.5c0.2,3.8-2,4.3-5.1,4.3s-4.7-0.7-4.6-4.2c0.1-10.5,0.1-21,0-31.5c0-3.2,1.3-4.1,4.2-4
		c7.4,0.1,14.7,0.2,22.1,0c3.5-0.1,4.1,1.5,4.2,4.6c0.1,3.3-1.2,4.4-4.4,4.3C359.8,550.9,354.5,551.1,349.3,551.1z"/>
	<path class="st0" d="M509.9,542.3c4.4,0,8.8,0.1,13.2,0c3.6-0.1,3.5,2.2,3.5,4.7s-0.5,4-3.5,4.2c-8.4,0.5-8.4,0.6-8.4,9
		c0,6-0.1,11.9,0,17.9c0.1,3.2-1.5,4-4.4,3.9c-2.7-0.1-5-0.1-5-3.8c0-6.6-0.1-13.2-0.1-19.8c0-7.1,0-7.3-7-7.2
		c-3.9,0.1-4.7-1.5-4.7-5c0-3.2,1.4-4.2,4.3-4L509.9,542.3L509.9,542.3z"/>
	<path class="st0" d="M375.5,561.9c0-5.3,0.1-10.6,0-15.9c-0.1-3.4,1.8-3.8,4.5-3.7c2.5,0.1,5.2-0.4,5.2,3.5c0,10.8,0,21.6,0,32.3
		c0,3.7-2.3,3.8-5,3.8c-3,0.1-4.8-0.7-4.7-4.1C375.6,572.6,375.5,567.2,375.5,561.9z"/>
	<path class="st0" d="M512.2,265.7c-7.8,3.5-11.2,2.9-15.5-2.6c-4.9-6.1-9.7-12.3-14.5-18.4c-2.3-2.9-0.5-9.7,2.9-10.9
		c0.9-0.1,1.8,0.1,2.4,0.8C495.6,244.8,503.8,255.1,512.2,265.7z"/>
</g>
</svg>
